# xmcd
# 
# Track frame offsets:
#     150
#     40096
#     73060
#     124491
#     158928
#     172682
#     235968
#     293593
# 
# Disc length: 4414
# 
# Revision: 1
# Processed by: cddbd v1.5.2PL0 Copyright (c) Steve Scherf et al.
# Submitted via: fre:ac v1.0.31
# 
DISCID=6a113c08
DTITLE=Return To Forever - Returns Disc 2
DYEAR=2008
DGENRE=Jazz
TTITLE0=Friendship - Chick's Solo
TTITLE1=Romantic Warrior
TTITLE2=El Bayo de Negro - Stanley's Solo
TTITLE3=Lineage - Lenny's Solo
TTITLE4=Romantic Warrior
TTITLE5=Duel Of the Jester and the Tyrant
TTITLE6=500 Miles High
TTITLE7=BBC lifetime Achievement Award
EXTD=YEAR: 2008
EXTT0=
EXTT1=
EXTT2=
EXTT3=
EXTT4=
EXTT5=
EXTT6=
EXTT7=
PLAYORDER=
